<svg data-v-423bf9ae="" xmlns="http://www.w3.org/2000/svg" viewBox="0 0 556.4693231046192 60" class="font"><!----><!----><!----><g data-v-423bf9ae="" id="418059b3-f434-4e6b-82b5-bc8d3d7cbae9" fill="white" transform="matrix(4.768527507781982,0,0,4.768527507781982,-1.3351612091064453,-1.3828725814819336)"><path d="M5.52 0.94C4.96 0.60 4.40 0.45 3.86 0.45C2.59 0.45 1.55 1.29 1.55 3.09L1.55 3.68L0.70 3.68C0.14 3.68 0.14 5.12 0.70 5.12L1.55 5.12L1.55 9.63C1.55 10.19 3.21 10.19 3.21 9.63L3.21 5.12L4.24 5.12C4.90 5.12 5.61 3.68 4.96 3.68L3.21 3.68L3.21 3.14C3.21 2.25 3.51 1.81 4.10 1.81C4.47 1.81 4.94 1.96 5.52 2.30C5.98 2.56 6.01 1.22 5.52 0.94ZM13.31 8.48C13.19 8.54 13.09 8.57 12.99 8.57C12.71 8.57 12.57 8.37 12.57 7.97L12.57 3.78C12.57 3.22 10.93 3.22 10.93 3.78L10.93 7.64C10.33 8.34 9.73 8.61 9.17 8.61C8.33 8.61 7.87 8.15 7.87 7.13L7.87 3.54C7.87 2.88 6.24 3.58 6.24 4.24L6.24 7.70C6.24 9.16 7.10 10.04 8.50 10.04C9.45 10.04 10.33 9.70 11.02 9.00C11.20 9.76 11.66 10.04 12.22 10.04C12.57 10.04 12.94 9.94 13.31 9.80C13.90 9.53 13.87 8.22 13.31 8.48ZM21.62 8.57C21.49 8.62 21.39 8.64 21.29 8.64C21.01 8.64 20.87 8.44 20.87 8.04L20.87 7.52L20.87 5.73C20.87 4.26 20.02 3.37 18.62 3.37C17.68 3.37 16.81 3.71 16.13 4.38L15.90 3.67C15.76 3.29 14.53 3.25 14.53 3.78L14.53 9.63C14.53 10.19 16.17 10.19 16.17 9.63L16.17 5.77C16.77 5.08 17.37 4.82 17.93 4.82C18.77 4.82 19.24 5.26 19.24 6.30L19.24 7.20L19.24 8.29C19.24 9.65 19.80 10.11 20.52 10.11C20.87 10.11 21.24 10.01 21.62 9.87C22.20 9.62 22.18 8.29 21.62 8.57ZM22.72 6.72C22.72 8.97 24.12 10.05 26.15 10.05C27.05 10.05 27.73 9.74 28.15 9.42C28.53 9.11 28.53 7.76 28.03 8.08C27.62 8.36 27.01 8.61 26.36 8.61C25.30 8.61 24.36 8.19 24.36 6.72C24.36 5.24 25.30 4.80 26.36 4.80C27.01 4.80 27.62 5.07 28.03 5.35C28.52 5.68 28.53 4.31 28.15 3.99C27.73 3.65 27.05 3.36 26.15 3.36C24.12 3.36 22.72 4.42 22.72 6.72ZM34.19 8.26C32.87 9.02 32.09 8.76 32.09 7.45L32.09 5.12L34.29 5.12C34.85 5.12 34.85 3.68 34.29 3.68L32.09 3.68L32.09 2.03C32.09 1.50 30.79 1.50 30.72 1.90L30.44 3.68L29.58 3.68C29.02 3.68 29.02 5.12 29.58 5.12L30.44 5.12L30.44 7.39C30.44 9.95 32.40 10.58 34.19 9.59C34.66 9.30 34.65 8.01 34.19 8.26ZM36.75 2.31C37.31 2.31 37.70 1.92 37.70 1.29C37.70 0.70 37.31 0.29 36.75 0.29C36.16 0.29 35.78 0.70 35.78 1.29C35.78 1.92 36.16 2.31 36.75 2.31ZM37.90 8.51C37.86 8.53 37.81 8.54 37.77 8.54C37.63 8.54 37.56 8.43 37.56 8.25L37.56 3.56C37.56 2.90 35.91 3.58 35.91 4.26L35.91 8.65C35.91 9.63 36.39 10.04 37.02 10.04C37.30 10.04 37.60 9.97 37.90 9.83C38.49 9.53 38.49 8.26 37.90 8.51ZM42.57 10.05C44.66 10.05 45.88 8.82 45.88 6.72C45.88 4.61 44.66 3.36 42.57 3.36C40.49 3.36 39.27 4.61 39.27 6.72C39.27 8.82 40.49 10.05 42.57 10.05ZM42.57 8.82C41.52 8.82 40.91 8.06 40.91 6.72C40.91 5.35 41.52 4.59 42.57 4.59C43.62 4.59 44.24 5.35 44.24 6.72C44.24 8.06 43.62 8.82 42.57 8.82ZM54.01 8.57C53.89 8.62 53.79 8.64 53.69 8.64C53.41 8.64 53.27 8.44 53.27 8.04L53.27 7.52L53.27 5.73C53.27 4.26 52.42 3.37 51.02 3.37C50.08 3.37 49.21 3.71 48.52 4.38L48.30 3.67C48.16 3.29 46.93 3.25 46.93 3.78L46.93 9.63C46.93 10.19 48.57 10.19 48.57 9.63L48.57 5.77C49.17 5.08 49.77 4.82 50.33 4.82C51.17 4.82 51.63 5.26 51.63 6.30L51.63 7.20L51.63 8.29C51.63 9.65 52.19 10.11 52.92 10.11C53.27 10.11 53.63 10.01 54.01 9.87C54.60 9.62 54.57 8.29 54.01 8.57ZM65.70 8.48C65.58 8.53 65.46 8.55 65.38 8.55C65.10 8.55 64.97 8.36 64.97 7.97L64.97 7.18L64.97 0.62C64.97-0.04 63.34 0.66 63.34 1.32L63.34 4.12C62.76 3.64 61.98 3.37 61.11 3.37C59.63 3.37 58.62 4.70 58.62 6.69C58.62 8.72 59.63 10.04 61.11 10.04C62.06 10.04 62.89 9.70 63.46 9.14C63.66 9.79 64.11 10.02 64.64 10.02C64.97 10.02 65.34 9.93 65.70 9.79C66.30 9.52 66.28 8.22 65.70 8.48ZM61.82 8.61C60.80 8.62 60.28 7.97 60.28 6.69C60.28 5.46 60.80 4.80 61.82 4.82C62.37 4.82 62.89 5.04 63.34 5.46L63.34 7.91C62.90 8.36 62.37 8.61 61.82 8.61ZM67.97 2.31C68.53 2.31 68.92 1.92 68.92 1.29C68.92 0.70 68.53 0.29 67.97 0.29C67.38 0.29 67.00 0.70 67.00 1.29C67.00 1.92 67.38 2.31 67.97 2.31ZM69.12 8.51C69.08 8.53 69.03 8.54 68.99 8.54C68.85 8.54 68.78 8.43 68.78 8.25L68.78 3.56C68.78 2.90 67.13 3.58 67.13 4.26L67.13 8.65C67.13 9.63 67.61 10.04 68.24 10.04C68.52 10.04 68.82 9.97 69.12 9.83C69.71 9.53 69.71 8.26 69.12 8.51ZM72.18 5.29C72.18 4.84 72.86 4.58 73.72 4.58C74.44 4.58 75.28 4.76 76.02 5.15C76.44 5.39 76.40 4.07 75.99 3.88C75.31 3.54 74.45 3.37 73.61 3.37C72.03 3.37 70.55 3.98 70.55 5.33C70.55 6.80 72.09 7 73.30 7.20C74.12 7.32 74.79 7.43 74.79 7.92C74.79 8.46 74.07 8.75 73.16 8.75C72.44 8.75 71.60 8.57 70.87 8.18C70.42 7.97 70.49 9.35 70.88 9.55C71.57 9.87 72.46 10.05 73.33 10.05C74.91 10.05 76.43 9.42 76.43 7.95C76.43 6.34 74.87 6.16 73.64 5.98C72.84 5.87 72.18 5.75 72.18 5.29ZM81.52 3.37C80.61 3.37 79.80 3.70 79.23 4.23L79.02 3.67C78.89 3.28 77.64 3.25 77.64 3.78L77.64 12.46C77.64 13.01 79.30 13.01 79.30 12.46L79.30 9.30C79.87 9.77 80.65 10.04 81.52 10.04C83.02 10.04 84.01 8.74 84.01 6.73C84.01 4.72 83.02 3.37 81.52 3.37ZM80.81 8.61C80.26 8.60 79.74 8.37 79.30 7.95L79.30 5.50C79.73 5.05 80.26 4.82 80.81 4.80C81.83 4.80 82.36 5.46 82.36 6.72C82.36 7.95 81.83 8.61 80.81 8.61ZM88.27 8.48C88.00 8.57 87.78 8.62 87.61 8.62C87.23 8.62 87.08 8.36 87.08 7.76L87.08 0.71C87.08 0.04 85.44 0.74 85.44 1.41L85.44 8.15C85.44 9.56 86.13 10.05 87.00 10.05C87.40 10.05 87.84 9.94 88.27 9.79C88.87 9.52 88.86 8.26 88.27 8.48ZM96.38 8.48C96.26 8.53 96.17 8.54 96.07 8.54C95.80 8.54 95.66 8.33 95.66 7.76L95.66 6.03C95.66 4.05 94.57 3.37 92.86 3.37C91.45 3.37 90.62 3.65 90.03 4.14C89.57 4.51 89.67 5.56 90.15 5.26C90.72 4.93 91.49 4.69 92.36 4.69C93.53 4.69 94.02 5.08 94.02 6.24L94.02 6.31C93.59 6.09 92.95 5.95 92.05 5.95C90.55 5.95 89.59 6.76 89.59 8.01C89.59 9.25 90.50 10.05 91.90 10.05C92.97 10.05 93.73 9.66 94.19 9.24C94.42 9.81 94.84 10.02 95.33 10.02C95.66 10.02 96.03 9.93 96.38 9.79C96.98 9.53 96.98 8.26 96.38 8.48ZM92.34 8.75C91.53 8.75 91.24 8.37 91.24 7.97C91.24 7.55 91.56 7.15 92.43 7.15C93.24 7.15 93.77 7.29 94.02 7.48L94.02 8.04C93.77 8.34 93.21 8.75 92.34 8.75ZM102.23 3.82C101.71 5.26 101.09 6.72 100.41 8.11C99.50 6.59 98.91 5.38 98.42 3.84C98.21 3.21 96.46 3.22 96.68 3.84C97.38 5.81 98.34 7.64 99.64 9.60C99.48 9.90 99.33 10.18 99.18 10.46C98.78 11.14 98.43 11.42 98.04 11.42C97.86 11.42 97.66 11.37 97.45 11.24C96.88 10.92 96.75 12.26 97.24 12.53C97.61 12.71 97.97 12.81 98.34 12.81C99.06 12.81 99.78 12.40 100.41 11.33C101.88 8.82 103.07 6.34 103.95 3.82C104.16 3.23 102.42 3.22 102.23 3.82ZM106.33 10.53C106.71 11.07 107.73 10.91 107.53 10.53C106.01 7.45 105.99 4.56 107.53 1.48C107.73 1.11 106.69 0.95 106.33 1.48C104.24 4.58 104.22 7.45 106.33 10.53ZM109.77 10.53C111.89 7.45 111.86 4.58 109.77 1.48C109.41 0.95 108.37 1.11 108.57 1.48C110.10 4.56 110.10 7.45 108.57 10.53C108.37 10.91 109.40 11.07 109.77 10.53ZM116.56 9.74C115.70 9.74 115.35 9.35 115.35 7.78C115.35 6.69 115.01 6.16 113.92 6.08C115.01 5.99 115.35 5.46 115.35 4.37C115.35 2.80 115.70 2.41 116.56 2.41C117.11 2.41 117.12 1.13 116.56 1.13L116.10 1.13C114.69 1.13 113.85 1.60 113.85 4.12C113.85 5.12 113.53 5.39 112.60 5.39C112.32 5.39 112.18 5.71 112.18 6.08C112.18 6.43 112.32 6.76 112.60 6.76C113.53 6.76 113.85 7.03 113.85 8.04C113.85 10.56 114.69 11.02 116.10 11.02L116.56 11.02C117.12 11.02 117.11 9.74 116.56 9.74Z"></path></g><!----><!----></svg>